<svg width="96" height="66" viewBox="0 0 96 66" fill="none" xmlns="http://www.w3.org/2000/svg">
<path fill-rule="evenodd" clip-rule="evenodd" d="M56.5894 60.8232C53.7713 61.8843 50.7195 62.4697 47.5302 62.4697C44.3175 62.4697 41.2454 61.8753 38.41 60.7999L41.3363 44.3685C39.1187 42.5671 37.6999 39.8196 37.6999 36.7385C37.6999 31.3097 42.1014 26.909 47.5302 26.909C52.9605 26.909 57.3605 31.3097 57.3605 36.7385C57.3605 39.846 55.9161 42.6115 53.6654 44.4135L56.5894 60.8232ZM82.8737 31.8839C82.2538 31.8839 81.6511 31.9455 81.0566 32.0334C82.1245 29.9984 82.737 27.686 82.737 25.2271C82.737 17.123 76.1659 10.5527 68.0625 10.5527C65.4699 10.5527 63.041 11.235 60.9271 12.4141C60.8993 12.3991 60.873 12.3833 60.8467 12.3675C60.4461 6.00761 55.1766 0.96582 48.7153 0.96582C42.7168 0.96582 37.7457 5.30871 36.7387 11.0193C36.7192 11.0268 36.6981 11.0344 36.6786 11.0434C34.8878 10.0071 32.8159 9.40286 30.599 9.40286C24.3345 9.40286 19.1792 14.1358 18.5029 20.2199C16.6595 19.0987 14.5034 18.4396 12.1881 18.4396C5.4637 18.4396 0.0115967 23.8902 0.0115967 30.6146C0.0115967 35.4655 2.85526 39.6408 6.95917 41.5984C6.9246 42.0336 6.90131 42.4739 6.90131 42.9188C6.90131 52.0645 14.3156 59.475 23.4583 59.475C25.6729 59.475 27.7794 59.0279 29.7092 58.2388C34.518 62.1984 40.678 64.5777 47.3949 64.5777C48.3546 64.5777 49.3044 64.5296 50.2408 64.4341C55.4614 63.9043 60.2522 61.9271 64.2149 58.9167C66.0936 60.1025 68.312 60.7984 70.6965 60.7984C74.6539 60.7984 78.1589 58.9016 80.3825 55.9783C81.1866 56.1451 82.0193 56.2361 82.8737 56.2361C89.5974 56.2361 95.0487 50.7847 95.0487 44.0588C95.0487 37.3352 89.5974 31.8839 82.8737 31.8839Z" fill="white"/>
<path fill-rule="evenodd" clip-rule="evenodd" d="M75.3733 36.742C75.3733 52.1184 62.9082 64.5834 47.5326 64.5834C32.1563 64.5834 19.6912 52.1184 19.6912 36.742C19.6912 21.3657 32.1563 8.90137 47.5326 8.90137C62.9082 8.90137 75.3733 21.3657 75.3733 36.742Z" fill="white"/>
<path fill-rule="evenodd" clip-rule="evenodd" d="M75.3733 36.7371C75.3733 52.1135 62.9075 64.5786 47.5326 64.5786C32.1563 64.5786 19.6912 52.1135 19.6912 36.7371C19.6912 21.3615 32.1563 8.89648 47.5326 8.89648C62.9075 8.89648 75.3733 21.3615 75.3733 36.7371Z" stroke="#3783E3"/>
<path fill-rule="evenodd" clip-rule="evenodd" d="M57.3095 36.7269C57.3095 31.3432 52.9456 26.98 47.5604 26.98C42.1781 26.98 37.8142 31.3432 37.8142 36.7269C37.8142 39.781 39.2203 42.5051 41.4191 44.2914L38.5176 60.5839C41.3297 61.6495 44.3755 62.2394 47.5604 62.2394C50.7234 62.2394 53.7504 61.6585 56.5445 60.6072L53.6445 44.3358C55.8772 42.5495 57.3095 39.808 57.3095 36.7269Z" fill="#3783E3"/>
<path fill-rule="evenodd" clip-rule="evenodd" d="M40.2894 24.2405C42.4221 23.0058 44.8908 22.2866 47.533 22.2866C50.1745 22.2866 52.6432 23.0058 54.7759 24.2405V12.2136C54.7759 12.1572 54.7677 12.1024 54.7602 12.049C52.4658 11.3779 50.043 11.0127 47.533 11.0127C45.0215 11.0127 42.5995 11.3779 40.3067 12.049C40.2984 12.1031 40.2894 12.1572 40.2894 12.2151V24.2405Z" fill="#0E2653"/>
<path fill-rule="evenodd" clip-rule="evenodd" d="M33.0459 36.7725C33.0459 34.119 33.7711 31.6383 35.0185 29.498H22.8436C22.1695 31.7984 21.8027 34.2257 21.8027 36.7417C21.8027 39.2592 22.1695 41.6881 22.8436 43.9869H34.9802C33.756 41.8609 33.0459 39.4028 33.0459 36.7725Z" fill="#0E2653"/>
<path fill-rule="evenodd" clip-rule="evenodd" d="M60.0469 29.498C61.2929 31.6383 62.0196 34.1182 62.0196 36.7725C62.0196 39.4028 61.3094 41.8609 60.0838 43.9861H72.2219C72.8945 41.6881 73.2627 39.2585 73.2627 36.7417C73.2627 34.2257 72.8945 31.7984 72.2219 29.498H60.0469Z" fill="#0E2653"/>
<path fill-rule="evenodd" clip-rule="evenodd" d="M36.0386 24.1864V13.7241C30.9938 16.2469 26.8944 20.3764 24.4138 25.4429H34.7821C35.475 25.4429 36.0386 24.8808 36.0386 24.1864Z" fill="#0E2653"/>
<path fill-rule="evenodd" clip-rule="evenodd" d="M60.2833 25.4425H70.6532C68.1695 20.3759 64.0701 16.2464 59.0253 13.7222V24.186C59.0253 24.8804 59.5889 25.4425 60.2833 25.4425Z" fill="#0E2653"/>
<path fill-rule="evenodd" clip-rule="evenodd" d="M34.7822 48.04H24.4124C26.5759 52.4551 29.9637 56.163 34.1367 58.7105L36.0387 49.298C36.0387 48.6022 35.4751 48.04 34.7822 48.04Z" fill="#0E2653"/>
<path fill-rule="evenodd" clip-rule="evenodd" d="M59.0253 49.298L60.916 58.7195C65.0943 56.1705 68.4881 52.4611 70.6532 48.04H60.2833C59.5889 48.04 59.0253 48.6022 59.0253 49.298Z" fill="#0E2653"/>
</svg>
